<svg xmlns="http://www.w3.org/2000/svg" viewBox="0 0 900 680">
  <defs>
    <linearGradient id="sky" x1="0" x2="1" y1="0" y2="1">
      <stop stop-color="#fff4df"/>
      <stop offset="1" stop-color="#d8b66e"/>
    </linearGradient>
  </defs>
  <rect width="900" height="680" fill="url(#sky)"/>
  <circle cx="704" cy="136" r="82" fill="#fffaf0" opacity=".72"/>
  <path d="M0 402c132-78 261-103 386-75 88 20 151 78 252 80 83 2 166-31 262-98v371H0z" fill="#8f6724" opacity=".24"/>
  <path d="M0 495h900v185H0z" fill="#28231a" opacity=".16"/>
  <path d="M92 342h716v176H92z" fill="#fffaf0" opacity=".86"/>
  <path d="M128 376h196v90H128zm258 0h196v90H386zm258 0h180v90H644z" fill="#b58a38" opacity=".42"/>
  <path d="M100 314h700l-86-98H186z" fill="#28231a" opacity=".78"/>
  <path d="M214 216h430v-52H214z" fill="#1f6f63" opacity=".72"/>
  <path d="M76 518h748v56H76z" fill="#9b4d45" opacity=".74"/>
</svg>
