<svg xmlns="http://www.w3.org/2000/svg" viewBox="0 0 512 512" role="img" aria-label="Al Istiraha logo">
  <rect width="512" height="512" rx="96" fill="#b58a38"/>
  <path d="M91 332c54-94 105-141 156-141 54 0 75 48 115 48 26 0 45-20 63-54-20 103-67 154-142 154-47 0-78-32-116-32-25 0-48 10-76 25z" fill="#fffaf0"/>
  <path d="M129 171h255v40H129zM163 121h188v34H163z" fill="#28231a" opacity=".78"/>
  <circle cx="256" cy="274" r="42" fill="#1f6f63"/>
  <path d="M256 232a42 42 0 1 0 0 84 52 52 0 1 1 0-84z" fill="#fffaf0"/>
</svg>
