<svg xmlns="http://www.w3.org/2000/svg" viewBox="0 0 512 512" role="img" aria-label="Al Istiraha logo">
  <defs>
    <linearGradient id="g" x1="96" x2="416" y1="88" y2="424" gradientUnits="userSpaceOnUse">
      <stop offset="0" stop-color="#2E7A5E"/>
      <stop offset="1" stop-color="#164535"/>
    </linearGradient>
    <linearGradient id="gold" x1="146" x2="348" y1="114" y2="352" gradientUnits="userSpaceOnUse">
      <stop offset="0" stop-color="#D8B665"/>
      <stop offset="1" stop-color="#A8782E"/>
    </linearGradient>
  </defs>
  <rect width="512" height="512" rx="108" fill="#fffdf8"/>
  <path fill="url(#g)" d="M111 340h58V233l87-73 87 73v107h58V214L256 91 111 214v126z"/>
  <path fill="#fffdf8" d="M195 340V244l61-51 61 51v96h-46v-67h-30v67h-46z"/>
  <path fill="url(#g)" d="M117 359h278c16 0 29 13 29 29v12H88v-12c0-16 13-29 29-29z"/>
  <path fill="url(#gold)" d="M285 246c22-31 46-47 72-48-11 25-33 43-72 48zM279 226c11-35 29-56 55-64-2 29-20 51-55 64zM258 219c-7-37-2-65 17-84 13 28 7 56-17 84zM238 228c-30-24-43-48-38-75 25 14 37 39 38 75zM229 250c-40-7-62-22-69-45 28-2 51 13 69 45z"/>
  <path fill="url(#g)" d="M250 222h18v127h-18z"/>
  <path fill="#A8782E" d="M286 121l12 24 26 4-19 18 5 26-24-13-24 13 5-26-19-18 26-4 12-24z"/>
</svg>
